<svg xmlns="http://www.w3.org/2000/svg" viewBox="0 0 1200 630" width="1200" height="630" role="img" aria-label="Cloud Migration">
  <defs>
    <linearGradient id="bg" x1="0" y1="0" x2="1" y2="1">
      <stop offset="0" stop-color="#0b3d3a"/>
      <stop offset="1" stop-color="#0d9488"/>
    </linearGradient>
    <linearGradient id="fade" x1="0" y1="0" x2="1" y2="0">
      <stop offset="0" stop-color="#ffffff" stop-opacity="0.25"/>
      <stop offset="1" stop-color="#ffffff" stop-opacity="0.9"/>
    </linearGradient>
  </defs>
  <rect width="1200" height="630" fill="url(#bg)"/>
  <g fill="none" stroke="#5eead4" stroke-opacity="0.18" stroke-width="2">
    <path d="M0 480 Q 300 400 600 480 T 1200 480"/>
    <path d="M0 540 Q 300 460 600 540 T 1200 540"/>
  </g>
  <g transform="translate(430 220)">
    <path d="M120 150 a70 70 0 0 1 6 -139 a95 95 0 0 1 182 22 a62 62 0 0 1 22 121 z" fill="#ffffff" fill-opacity="0.12" stroke="#a7f3d0" stroke-width="3"/>
    <g stroke="url(#fade)" stroke-width="10" stroke-linecap="round">
      <line x1="150" y1="90" x2="290" y2="90"/>
      <path d="M255 60 l40 30 l-40 30" fill="none"/>
    </g>
  </g>
  <text x="80" y="120" font-family="Inter, system-ui, sans-serif" font-size="34" font-weight="700" fill="#a7f3d0" letter-spacing="4">CLOUD MIGRATION</text>
</svg>
