<svg width="138" height="48" viewBox="0 0 138 48" fill="none" xmlns="http://www.w3.org/2000/svg">
<path fill-rule="evenodd" clip-rule="evenodd" d="M131.795 12.0507L125.9 17.9308L125.092 17.1248L123.522 15.5588L123.494 15.5872L123.494 15.5884L120.541 18.535L125.901 23.8812L137.761 12.0507L134.778 9.0752L131.795 12.0507Z" fill="#5BACDF"/>
<path fill-rule="evenodd" clip-rule="evenodd" d="M126.039 0.239258L114.083 12.1799L119.822 17.9109L122.828 14.9081L120.097 12.1799L126.039 6.24555L131.167 11.3667L134.173 8.36339L126.039 0.239258Z" fill="#2F769F"/>
<path fill-rule="evenodd" clip-rule="evenodd" d="M116.311 20.4309H112.609L109.485 30.1843C109.01 31.64 108.636 32.9948 108.432 35.0268M108.283 33.431L104.018 20.4307H100.046H98.754H92.7107C91.6238 20.2615 90.3333 20.0244 89.043 20.0244C84.628 20.0244 81.6059 22.8693 81.6059 26.4589C81.6059 29.1679 82.5563 30.7253 85.6808 32.2159C84.5602 32.7234 83.7111 34.0445 83.7111 35.1283C83.7111 35.8051 84.0168 36.7874 84.8997 37.2615C83.4736 37.9724 81.0625 39.192 81.0625 42.3071C81.0625 45.4229 84.4247 47.5227 90.1298 47.5227C94.7479 47.5227 99.5019 46.0665 99.5019 41.4611C99.5019 38.5489 97.4647 37.1262 95.0538 36.4826L88.941 34.823C88.0577 34.5862 87.7867 34.4169 87.7867 33.943C87.7867 33.3672 88.0244 33.0622 88.2954 32.7917C88.6013 32.8593 89.0767 32.9268 89.5862 32.9268C95.7667 32.9268 97.6349 29.5064 97.6349 26.8986C97.6349 24.6979 96.6156 23.6819 96.0724 23.1397H99.9618L105.989 40.1936M93.2199 26.4588C93.2199 28.3886 91.7939 29.6758 89.654 29.6758C87.5483 29.6758 86.0206 28.4228 86.0206 26.4588C86.0206 24.5619 87.2094 23.2752 89.722 23.2752C91.3182 23.2752 93.2199 24.1556 93.2199 26.4588ZM87.4804 38.549L92.5063 39.8352C93.8649 40.1737 94.8157 40.682 94.8157 41.9009C94.8157 43.3915 93.5932 44.4072 90.2994 44.4072C87.6846 44.4072 85.3412 43.6619 85.3412 41.7316C85.3412 40.2415 86.3261 39.3272 87.4804 38.549Z" fill="white"/>
<path fill-rule="evenodd" clip-rule="evenodd" d="M75.766 28.5242H67.6151C67.7853 25.9166 68.9061 23.4105 71.8946 23.4783C74.3053 23.4105 75.766 25.273 75.766 28.5242ZM80.6558 31.7755V29.9469C80.6558 24.5962 77.8037 20.0244 72.0644 20.0244C66.0878 20.0244 62.7258 24.2916 62.7258 30.4883C62.7258 37.0923 66.3253 41.0882 72.0304 41.0882C76.6489 41.0882 78.8218 38.6499 79.9089 35.9746L75.766 34.6203C75.4261 35.8733 74.1358 37.6341 71.9284 37.6341C68.4307 37.6341 67.6151 34.1796 67.6151 31.7755H80.6558Z" fill="white"/>
<path fill-rule="evenodd" clip-rule="evenodd" d="M64.5056 20.0246H57.4355V15.4531L52.5457 17.4846V20.0246H47.5155V20.0441C45.2487 20.2389 43.3631 22.0464 42.176 23.6145H42.108V20.4309H37.2183V40.6821H42.108V27.2039C43.2291 25.9845 44.6891 23.9061 47.1 23.9061C47.2726 23.9061 47.7675 23.8883 48.3822 23.866H52.5457V25.5448V34.6205C52.5457 38.0409 53.87 41.0884 58.4548 41.0884C60.0848 41.0884 61.6806 40.7163 62.2582 40.4787V36.9571C61.5448 37.2617 60.526 37.3634 59.8808 37.3634C57.5377 37.3634 57.4355 35.9748 57.4355 33.8755V25.5448V23.866H61.6043L64.5056 20.0246Z" fill="white"/>
<path fill-rule="evenodd" clip-rule="evenodd" d="M30.3842 28.5242H22.2337C22.4037 25.9166 23.5245 23.4105 26.5128 23.4783C28.9237 23.4105 30.3842 25.273 30.3842 28.5242ZM35.2742 31.7755V29.9469C35.2742 24.5962 32.4221 20.0244 26.6828 20.0244C20.706 20.0244 17.344 24.2916 17.344 30.4883C17.344 37.0923 20.9437 41.0882 26.649 41.0882C31.2671 41.0882 33.4405 38.6499 34.5271 35.9746L30.3842 34.6203C30.0447 35.8733 28.754 37.6341 26.547 37.6341C23.0493 37.6341 22.2337 34.1796 22.2337 31.7755H35.2742Z" fill="white"/>
<mask id="mask0" mask-type="alpha" maskUnits="userSpaceOnUse" x="0" y="20" width="17" height="22">
<path fill-rule="evenodd" clip-rule="evenodd" d="M0 20.0244H16.6058V41.0884H0V20.0244Z" fill="white"/>
</mask>
<g mask="url(#mask0)">
<path fill-rule="evenodd" clip-rule="evenodd" d="M5.09395 30.2515C5.09395 25.7819 6.1463 23.4787 8.72762 23.4787C10.867 23.4787 11.8181 25.3073 11.8516 27.2374L16.4024 26.0187C16.1649 24.0206 13.9915 20.0244 8.82913 20.0244C2.51286 20.0244 0 24.7995 0 30.6241C0 35.8053 2.10542 41.0884 8.6594 41.0884C14.2968 41.0884 15.7233 37.6344 16.6059 35.162L12.1913 34.0445C12.0216 35.4327 11.1048 37.6344 8.79561 37.6344C5.73886 37.6344 5.09395 34.5186 5.09395 30.2515Z" fill="white"/>
</g>
<path fill-rule="evenodd" clip-rule="evenodd" d="M103.882 47.0485C107.346 47.0485 108.433 45.6938 109.655 42.0702L117.024 20.4307H112.609L104.175 45.6018" fill="white"/>
<path fill-rule="evenodd" clip-rule="evenodd" d="M106.589 42.4962H102.658L99.519 47.049H103.882L108.343 42.5082L110.496 33.4336H107.386L105.951 40.1202L106.589 42.4962Z" fill="white"/>
</svg>
