<?xml version="1.0" encoding="UTF-8"?>
<svg xmlns="http://www.w3.org/2000/svg" class="svg-site-logo" version="1.1" id="Layer_1" x="0" y="0" viewBox="0 0 142 34.7" xml:space="preserve">
  <style>.svg-site-logo .st0{fill:#29aae1}.svg-site-logo .st1,.svg-site-logo .st2{fill-rule:evenodd;clip-rule:evenodd}.svg-site-logo .st2{fill:#29aae1}</style>
  <title>Site Logo</title>
  <g id="Layer_2_1_">
    <g id="Layer_1-2">
      <path class="st0" d="M5.8 31.9S-5.8 21.3 3.7 7.4c4.7-6.1 12.6-8.8 20-6.6C31.2 3 36.5 9.7 37 17.5c.3 6.1-2.4 11.9-7.2 15.6V14.2l-6.9-6-2.9 2.3V9.1h-2.4v3.6l-2 1.7v4.7l5.4 4.3v11.2h-2V24.4l-6.7-5-6.5 4.9v7.6z"></path>
      <path class="st0" d="M21.5 16.5h2.7v2.8h-2.7zM10.8 25.1h2.7v2.8h-2.7z"></path>
      <g>
        <path class="st1" d="M40.7 2.3H43v7.1h7.8c.1-2.3 0-4.7 0-7.1H53v16.3h-2.3v-7.1h-7.8v7.1h-2.3l.1-16.3z"></path>
        <path class="st2" d="M98.2 2.3h2.3v14.1h8.1v2.1H98.2V2.3z"></path>
        <path class="st1" d="M75.4 7.1c2.4-1.1 6.4-1.4 8.1.4 1 1.1 1.2 2.9 1.2 5.5v5.6h-2.1v-7.9c0-.9-.5-1.7-1.3-2.1-1.3-.7-3.3-.1-4.6.3.3 2 .4 4 .3 6v3.7h-2.1v-4.7c0-2 .3-4.3-1-5.2-1.1-.8-3.3-.4-4.7 0v9.9H67V7.4c2-1.1 6.3-1.9 8.4-.3z"></path>
        <path class="st2" d="M142 18.6h-2.3v-5.7-2.7c-.1-2.4-3.5-2.2-5.6-1.5v9.9h-2.2V7.4c1.5-.8 3.1-1.2 4.7-1.3 3-.2 5.4 1.3 5.4 4.1v8.4z"></path>
        <path class="st1" d="M59.6 6.3c3.3-.2 5.4 1.3 6 4 .4 1.7.3 3.5-.3 5.2-.5 1.4-1.5 2.5-2.9 3-1.6.6-3.4.5-5-.1-2-.8-3.1-2.9-3.1-5.8 0-1.3.2-2.6.8-3.7.9-1.7 2.6-2.7 4.5-2.6zm-2.2 2.8c-1.1 1.3-1.2 5.2 0 6.7.9 1.1 3.7 1.4 5 .3.8-.6 1.2-2.1 1.2-3.7 0-2.9-1-4.4-3.9-4.2-.9 0-1.7.3-2.3.9zM96.6 13.8h-8.3c0 .6.2 1.2.5 1.8 1.3 2 5.3 1.5 7.1.5v2c-1.6.6-3.3.9-5 .8-3-.2-4.8-2.2-5-5.3-.2-3.9 1-7 4.7-7.3 4.7-.5 6.5 2.8 6 7.5zm-5.7-5.6c-2 .2-2.6 1.4-2.7 3.5h6.2c-.1-2.2-1.2-3.7-3.5-3.5z"></path>
        <path class="st2" d="M113.7 6.3c2.1-.3 4.2.7 5.4 2.5 1.1 2.4 1.1 5.2 0 7.6-.3.6-.7 1-1.3 1.4-2.2 1.6-6.3 1.4-8.1-.8-1.6-1.9-1.8-6.4-.3-8.6 1.1-1.4 2.6-2.2 4.3-2.1zm-2.3 3c-.9 1.9-1 4.1-.2 6.1.8 1.4 3.5 2 5.2.8s1.7-5.9.2-7.3c-.8-.6-1.9-.8-2.9-.7-.9 0-1.7.4-2.3 1.1zM128.2 11c0-.6-.1-1.2-.4-1.7-1-1.8-4.6-1.3-6.3-.6V6.8c.9-.3 1.9-.5 2.8-.6 3.9-.3 5.9 1.4 6.2 4.5.1 1.5.1 3 0 4.4-.3 3.1-4.1 4.3-7.3 3.3-1.7-.4-3-2-2.9-3.7 0-3.6 4.1-4.1 7.9-3.7zm-5.6 3c-.3.6-.2 1.4.3 1.9.8 1 4 1.3 5 0 .6-.7.3-1.9.4-3.2-2.1-.1-5-.1-5.7 1.3z"></path>
        <g>
          <path class="st1" d="M80.4 21.8v1.9h1.7v1h-1.7v3.5c0 .9 1.1 1 1.7.7v1c-.7.4-1.6.3-2.3-.3-.5-.8-.7-1.7-.5-2.6v-2.4h-1.1v-1h1.1v-1.9l1.1.1zM46.2 27.5h-4.3c0 1.9 2.6 1.8 3.9 1.1v1c-2.4 1-4.9.3-5.1-2.2-.2-2.2.5-3.8 2.5-3.9 2.3-.1 3.2 1.6 3 4zm-1.9-2.7c-.6-.4-1.4-.3-2 .1-.3.4-.5 1-.5 1.5H45c0-.6-.2-1.1-.7-1.6zM57.7 29.9v2.4h-1.2v-3.6-3.3c0-.7.4-1.4 1-1.7 1.2-.4 2.5-.3 3.5.5 1.1 1.3 1.3 3.1.5 4.6-.6 1.2-2.3 1.5-3.8 1.1zm2.5-1.2c.9-.7.8-3.3 0-3.9-.6-.5-2.3-.4-2.4.3v3.6c.8.4 1.7.4 2.4 0zM70.1 27.5h-4.3c0 2 2.7 1.8 3.9 1.1v1c-1.3.6-3.4.6-4.3-.3-.5-.6-.8-1.3-.8-2-.2-1.8.4-3.7 2.4-3.8 2.4-.1 3.4 1.6 3.1 4zm-3.8-2.6c-.4.4-.6 1-.5 1.5H69c.1-.9-.6-1.7-1.5-1.8-.5 0-.9.1-1.2.3zM75.9 23.6v1.1c-.6 0-1.3.1-1.9.3v5h-1.2v-5.7c1.1-.5 2.1-.7 3.1-.7zM88.5 24v1c-.6-.4-3-.8-2.8.5.1.4 1 .6 1.4.8.9.3 1.8.8 1.8 2-.1 1.8-2.6 2.1-4.2 1.3v-1c.7.4 2.8.8 3-.3 0-.3-.1-.6-.4-.8-.7-.5-2-.5-2.5-1.2-.3-.6-.3-1.3 0-1.9.6-1 2.6-1.1 3.7-.4zM48.4 23.7h1.3c.6.9.8 1.2 1.5 2.1l1.5-2.1h1.4c-.7 1-1.5 2-2.2 3 .7 1.1 1.6 2.2 2.2 3.2h-1.4l-1.5-2.2c-.5.7-1 1.4-1.5 2.2h-1.4c.7-1.1 1.5-2.1 2.2-3.1-.7-1.1-1.5-2-2.1-3.1z"></path>
        </g>
      </g>
    </g>
  </g>
</svg>
